<?xml version="1.0" encoding="UTF-8"?>
<svg width="8px" height="8px" viewBox="0 0 8 8" version="1.1" xmlns="http://www.w3.org/2000/svg" xmlns:xlink="http://www.w3.org/1999/xlink">
    <title>图例/折线</title>
    <g id="控件" stroke="none" stroke-width="1" fill="none" fill-rule="evenodd">
        <g id="编组">
            <rect id="矩形" fill="#0A1B39" opacity="0" x="0" y="0" width="8" height="8"></rect>
            <path d="M4,2 C4.74647653,2 5.39743594,2.40895743 5.74105286,3.01504694 L5.73209062,2.99940385 L7,3 C7.55228475,3 8,3.44771525 8,4 C8,4.55228475 7.55228475,5 7,5 L5.73224343,5.00033215 L5.74105286,4.98495306 C5.39743594,5.59104257 4.74647653,6 4,6 C3.25352347,6 2.60256406,5.59104257 2.25894714,4.98495306 L2.26775657,5.00033215 L1,5 C0.44771525,5 0,4.55228475 0,4 C0,3.44771525 0.44771525,3 1,3 L2.26790938,2.99940385 L2.25894714,3.01504694 C2.60256406,2.40895743 3.25352347,2 4,2 Z M4,2.8 C3.3372583,2.8 2.8,3.3372583 2.8,4 C2.8,4.6627417 3.3372583,5.2 4,5.2 C4.6627417,5.2 5.2,4.6627417 5.2,4 C5.2,3.3372583 4.6627417,2.8 4,2.8 Z" id="形状结合" fill="#588BEE"></path>
        </g>
    </g>
</svg>